<mxfile host="65bd71144e">
    <diagram id="d65ngMn4i8kUIejdhSMQ" name="ตฺ 1 าณ">
        <mxGraphModel dx="826" dy="492" grid="0" gridSize="10" guides="1" tooltips="1" connect="1" arrows="1" fold="1" page="1" pageScale="1" pageWidth="1200" pageHeight="1920" background="#ffffff" math="0" shadow="0">
            <root>
                <mxCell id="0"/>
                <mxCell id="1" parent="0"/>
                <mxCell id="2" value="" style="image;html=1;image=img/lib/clip_art/computers/Network_128x128.png" vertex="1" parent="1">
                    <mxGeometry x="210" y="220" width="160" height="160" as="geometry"/>
                </mxCell>
                <mxCell id="3" value="&lt;p style=&quot;line-height: 94%;&quot;&gt;&lt;font face=&quot;Comic Sans MS&quot; size=&quot;1&quot; color=&quot;#000000&quot;&gt;&lt;span style=&quot;font-size: 47px;&quot;&gt;&lt;b style=&quot;&quot;&gt;Web Server&lt;/b&gt;&lt;/span&gt;&lt;/font&gt;&lt;/p&gt;" style="text;html=1;strokeColor=none;fillColor=none;align=center;verticalAlign=middle;whiteSpace=wrap;rounded=0;" vertex="1" parent="1">
                    <mxGeometry x="349" y="260" width="380" height="80" as="geometry"/>
                </mxCell>
            </root>
        </mxGraphModel>
    </diagram>
</mxfile>